<svg width="33" height="33" viewBox="0 0 33 33" fill="none" xmlns="http://www.w3.org/2000/svg">
<path d="M16.3496 0.131653C15.5463 0.131653 14.8951 0.782875 14.8951 1.5862V5.22256C14.8951 6.02589 15.5463 6.67711 16.3496 6.67711C17.1529 6.67711 17.8041 6.02589 17.8041 5.22256V1.5862C17.8041 0.782875 17.1529 0.131653 16.3496 0.131653Z" fill="#474747"/>
<path d="M16.3496 25.5862C15.5463 25.5862 14.8951 26.2374 14.8951 27.0407V30.6771C14.8951 31.4804 15.5463 32.1317 16.3496 32.1317C17.1529 32.1317 17.8041 31.4804 17.8041 30.6771V27.0407C17.8041 26.2374 17.1529 25.5862 16.3496 25.5862Z" fill="#474747"/>
<path d="M30.8951 14.6771C31.6984 14.6771 32.3496 15.3283 32.3496 16.1317C32.3496 16.935 31.6984 17.5862 30.8951 17.5862H27.2587C26.4554 17.5862 25.8042 16.935 25.8042 16.1317C25.8042 15.3283 26.4554 14.6771 27.2587 14.6771H30.8951Z" fill="#474747"/>
<path d="M6.89506 16.1317C6.89506 15.3283 6.24384 14.6771 5.44052 14.6771H1.80415C1.00083 14.6771 0.349609 15.3283 0.349609 16.1317C0.349609 16.935 1.00083 17.5862 1.80415 17.5862H5.44052C6.24384 17.5862 6.89506 16.935 6.89506 16.1317Z" fill="#474747"/>
<path d="M26.7256 24.4506C27.2936 25.0187 27.2936 25.9396 26.7256 26.5077C26.1576 27.0757 25.2366 27.0757 24.6686 26.5077L23.035 24.8741C22.4669 24.306 22.4669 23.3851 23.035 22.817C23.603 22.249 24.524 22.249 25.092 22.817L26.7256 24.4506Z" fill="#474747"/>
<path d="M9.66424 9.44626C10.2323 8.87823 10.2323 7.95726 9.66424 7.38922L8.02373 5.74871C7.45569 5.18067 6.53472 5.18067 5.96669 5.74871C5.39865 6.31674 5.39865 7.23771 5.96669 7.80574L7.6072 9.44626C8.17524 10.0143 9.09621 10.0143 9.66424 9.44626Z" fill="#474747"/>
<path d="M5.96669 24.4506C5.39865 25.0186 5.39865 25.9396 5.96669 26.5076C6.53472 27.0757 7.45569 27.0757 8.02373 26.5076L9.65732 24.874C10.2254 24.306 10.2254 23.385 9.65732 22.817C9.08929 22.249 8.16832 22.249 7.60029 22.817L5.96669 24.4506Z" fill="#474747"/>
<path d="M23.0281 9.44624C22.46 8.8782 22.46 7.95723 23.0281 7.3892L24.6686 5.74868C25.2366 5.18065 26.1576 5.18065 26.7256 5.74868C27.2936 6.31672 27.2936 7.23769 26.7256 7.80572L25.0851 9.44624C24.5171 10.0143 23.5961 10.0143 23.0281 9.44624Z" fill="#474747"/>
<path fill-rule="evenodd" clip-rule="evenodd" d="M16.3496 22.6771C19.9645 22.6771 22.895 19.7466 22.895 16.1316C22.895 12.5167 19.9645 9.58617 16.3496 9.58617C12.7346 9.58617 9.80413 12.5167 9.80413 16.1316C9.80413 19.7466 12.7346 22.6771 16.3496 22.6771ZM16.3496 20.0589C14.1806 20.0589 12.4223 18.3006 12.4223 16.1316C12.4223 13.9627 14.1806 12.2044 16.3496 12.2044C18.5186 12.2044 20.2769 13.9627 20.2769 16.1316C20.2769 18.3006 18.5186 20.0589 16.3496 20.0589Z" fill="#474747"/>
</svg>
