<svg width="65" height="65" viewBox="0 0 65 65" fill="none" xmlns="http://www.w3.org/2000/svg">
<path d="M46.6455 22.8008C47.6221 23.7773 47.6221 25.3604 46.6455 26.3364L29.874 43.1084C28.8975 44.0845 27.3149 44.0845 26.3384 43.1084L18.3545 35.124C17.3779 34.1479 17.3779 32.5649 18.3545 31.5889C19.3306 30.6123 20.9136 30.6123 21.8896 31.5889L28.106 37.8052L43.1099 22.8008C44.0864 21.8247 45.6694 21.8247 46.6455 22.8008ZM64.5 32.9546C64.5 50.6426 50.1855 64.9546 32.5 64.9546C14.812 64.9546 0.5 50.6401 0.5 32.9546C0.5 15.2666 14.8145 0.95459 32.5 0.95459C50.188 0.95459 64.5 15.269 64.5 32.9546ZM59.5 32.9546C59.5 18.0303 47.4224 5.95459 32.5 5.95459C17.5757 5.95459 5.5 18.0322 5.5 32.9546C5.5 47.8789 17.5776 59.9546 32.5 59.9546C47.4243 59.9546 59.5 47.877 59.5 32.9546Z" fill="#458DBE"/>
</svg>
