<svg width="14" height="8" viewBox="0 0 14 8" fill="none" xmlns="http://www.w3.org/2000/svg">
<g clip-path="url(#clip0_1_535)">
<path d="M13.4262 -3.05176e-05H0.57377C0.257049 -3.05176e-05 0 0.225714 0 0.503863C0 0.782012 0.257049 1.00776 0.57377 1.00776H13.4262C13.743 1.00776 14 0.782012 14 0.503863C14 0.225714 13.743 -3.05176e-05 13.4262 -3.05176e-05ZM10.6721 3.22521H3.32787C3.01115 3.22521 2.7541 3.45095 2.7541 3.7291C2.7541 4.00725 3.01115 4.233 3.32787 4.233H10.6721C10.9889 4.233 11.2459 4.00725 11.2459 3.7291C11.2459 3.45095 10.9889 3.22521 10.6721 3.22521ZM8.37705 6.45013H5.59871C5.28199 6.45013 5.02494 6.67587 5.02494 6.95402C5.02494 7.23217 5.28199 7.45791 5.59871 7.45791H8.37705C8.69377 7.45791 8.95082 7.23217 8.95082 6.95402C8.95082 6.67587 8.69377 6.45013 8.37705 6.45013Z" fill="#002561"/>
</g>
<defs>
<clipPath id="clip0_1_535">
<rect width="14" height="7.45794" fill="white"/>
</clipPath>
</defs>
</svg>
