<svg width="31" height="31" viewBox="0 0 31 31" fill="none" xmlns="http://www.w3.org/2000/svg">
<path d="M27.0196 0.77832H3.67961C2.79725 0.780958 1.95178 1.13264 1.32786 1.75657C0.703933 2.38049 0.352247 3.22596 0.349609 4.10832V21.4383C0.349605 22.3224 0.700124 23.1704 1.32433 23.7965C1.94854 24.4226 2.79552 24.7757 3.67961 24.7783H12.3496L14.2696 29.7783C14.4034 29.9942 14.5906 30.1719 14.813 30.2945C15.0354 30.4171 15.2856 30.4804 15.5396 30.4783C15.7974 30.4752 16.0501 30.4065 16.274 30.2788C16.4979 30.1511 16.6857 29.9686 16.8196 29.7483L18.6396 24.7483H27.0196C27.8985 24.7457 28.741 24.3968 29.3644 23.7772C29.9877 23.1576 30.3417 22.3172 30.3496 21.4383V4.10832C30.347 3.22596 29.9953 2.38049 29.3714 1.75657C28.7474 1.13264 27.902 0.780958 27.0196 0.77832ZM20.3496 10.7783H10.3496C10.0844 10.7783 9.83004 10.673 9.6425 10.4854C9.45497 10.2979 9.34961 10.0435 9.34961 9.77832C9.34961 9.5131 9.45497 9.25875 9.6425 9.07121C9.83004 8.88368 10.0844 8.77832 10.3496 8.77832H20.3496C20.6148 8.77832 20.8692 8.88368 21.0567 9.07121C21.2443 9.25875 21.3496 9.5131 21.3496 9.77832C21.3496 10.0435 21.2443 10.2979 21.0567 10.4854C20.8692 10.673 20.6148 10.7783 20.3496 10.7783ZM21.3496 15.3283C21.3496 15.5935 21.2443 15.8479 21.0567 16.0354C20.8692 16.223 20.6148 16.3283 20.3496 16.3283H10.3496C10.0844 16.3283 9.83004 16.223 9.6425 16.0354C9.45497 15.8479 9.34961 15.5935 9.34961 15.3283C9.34961 15.0631 9.45497 14.8087 9.6425 14.6212C9.83004 14.4337 10.0844 14.3283 10.3496 14.3283H20.3496C20.6148 14.3283 20.8692 14.4337 21.0567 14.6212C21.2443 14.8087 21.3496 15.0631 21.3496 15.3283Z" fill="#FFFFFE"/>
</svg>
