<svg width="24" height="25" viewBox="0 0 24 25" fill="none" xmlns="http://www.w3.org/2000/svg">
<path fill-rule="evenodd" clip-rule="evenodd" d="M10 5.25C10 4.00738 11.0073 3 12.25 3C13.4927 3 14.5 4.00738 14.5 5.25C14.5 6.49262 13.4927 7.5 12.25 7.5C11.0073 7.5 10 6.49262 10 5.25ZM10 12C10 10.7573 11.0073 9.75 12.25 9.75C13.4927 9.75 14.5 10.7573 14.5 12C14.5 13.2427 13.4927 14.25 12.25 14.25C11.0073 14.25 10 13.2427 10 12ZM10 18.75C10 17.5073 11.0073 16.5 12.25 16.5C13.4927 16.5 14.5 17.5073 14.5 18.75C14.5 19.9927 13.4927 21 12.25 21C11.0073 21 10 19.9927 10 18.75Z" fill="#474747"/>
</svg>
