<svg width="33" height="33" viewBox="0 0 33 33" fill="none" xmlns="http://www.w3.org/2000/svg">
<path d="M30.9415 10.7572H28.8833C28.4475 9.83861 27.7602 9.06238 26.9011 8.51863C26.042 7.97488 25.0463 7.6859 24.0296 7.68524H8.66969C7.65295 7.6859 6.65725 7.97488 5.79814 8.51863C4.93902 9.06238 4.25171 9.83861 3.81596 10.7572H1.75774C1.55406 10.7572 1.35871 10.8382 1.21469 10.9822C1.07066 11.1262 0.989746 11.3216 0.989746 11.5252V19.9732C0.989746 20.1769 1.07066 20.3723 1.21469 20.5163C1.35871 20.6603 1.55406 20.7412 1.75774 20.7412H3.53181C3.85472 21.7974 4.49247 22.7299 5.35975 23.4137C6.22703 24.0976 7.28246 24.5002 8.38484 24.5679C9.48722 24.6355 10.584 24.3649 11.5283 23.7922C12.4727 23.2196 13.2197 22.3721 13.6693 21.3633L14.8904 18.6139C15.0161 18.3318 15.2208 18.0922 15.4797 17.9241C15.7387 17.756 16.0409 17.6665 16.3496 17.6665C16.6584 17.6665 16.9605 17.756 17.2195 17.9241C17.4785 18.0922 17.6832 18.3318 17.8088 18.6139L19.0299 21.3633C19.4795 22.3721 20.2265 23.2196 21.1709 23.7922C22.1153 24.3649 23.212 24.6355 24.3144 24.5679C25.4168 24.5002 26.4722 24.0976 27.3395 23.4137C28.2068 22.7299 28.8445 21.7974 29.1674 20.7412H30.9415C31.1452 20.7412 31.3405 20.6603 31.4846 20.5163C31.6286 20.3723 31.7095 20.1769 31.7095 19.9732V11.5252C31.7095 11.3216 31.6286 11.1262 31.4846 10.9822C31.3405 10.8382 31.1452 10.7572 30.9415 10.7572ZM3.29373 19.2052H2.52573V12.2932H3.29373V19.2052ZM30.1735 19.2052C29.321 19.2052 29.4055 19.2052 29.4055 19.1592V12.2932H30.1735V19.2052Z" fill="#474747"/>
</svg>
