<svg width="71" height="70" viewBox="0 0 71 70" fill="none" xmlns="http://www.w3.org/2000/svg">
<g clip-path="url(#clip0_1_1070)">
<path d="M44.5512 8.80834L68.7203 50.6708C69.6067 52.2059 70.1164 53.9857 70.1164 55.8857C70.1164 61.6556 65.4388 66.3335 59.6686 66.3335H35.4996L27.1414 34.9546L35.4996 3.57579C39.3696 3.57579 42.7457 5.6816 44.5512 8.80834Z" fill="#002561"/>
<path d="M26.0879 8.45496L1.9186 50.3174C1.03236 51.8526 0.522705 53.6323 0.522705 55.5323C0.522705 61.3023 5.2003 65.9801 10.9705 65.9801H35.1395V3.22241C31.2695 3.22241 27.8934 5.32822 26.0879 8.45496Z" fill="#002561"/>
<path d="M65.1013 52.7603L40.9323 10.8983C39.843 9.01071 37.8426 7.81968 35.6792 7.75842L56.3504 62.1548H59.6687C63.1248 62.1548 65.9373 59.3425 65.9373 55.8862C65.9373 54.7885 65.6475 53.7075 65.1013 52.7603Z" fill="#F1F1F1"/>
<path d="M61.0367 52.7603C61.5089 53.7075 61.7583 54.7884 61.7583 55.8862C61.7583 59.3423 59.3331 62.1548 56.3505 62.1548H11.3306C7.87449 62.1548 5.06201 59.3423 5.06201 55.8862C5.06201 54.7884 5.35179 53.7075 5.89782 52.7603L30.0668 10.8982C31.1869 8.95916 33.2681 7.7542 35.4997 7.7542C35.5596 7.7542 35.6195 7.75555 35.6794 7.75839C37.5362 7.83087 39.2511 9.01906 40.1858 10.8982L61.0367 52.7603Z" fill="#F1F1F1"/>
<path fill-rule="evenodd" clip-rule="evenodd" d="M35.4994 44.0455C35.4993 44.0455 35.4991 44.0455 35.499 44.0455C33.5752 44.0455 32.0164 42.4853 32.0164 40.5628V21.757C32.0164 19.8332 33.5752 18.2743 35.499 18.2743C35.4991 18.2743 35.4993 18.2743 35.4994 18.2743C37.4232 18.2743 38.982 19.8332 38.982 21.757V40.5628C38.982 42.4853 37.4232 44.0455 35.4994 44.0455ZM35.4994 48.224H35.499C33.5752 48.224 32.0164 49.7828 32.0164 51.7066C32.0164 53.6304 33.5752 55.1893 35.499 55.1893L35.5058 55.1891C37.4266 55.1857 38.982 53.6282 38.982 51.7065C38.982 49.7828 37.4232 48.224 35.4994 48.224Z" fill="#002561"/>
</g>
<defs>
<clipPath id="clip0_1_1070">
<rect width="69.2336" height="69.2336" fill="white" transform="translate(0.883301 0.337769)"/>
</clipPath>
</defs>
</svg>
